<svg width="512" height="512" xmlns="http://www.w3.org/2000/svg" style=""><rect id="backgroundrect" width="100%" height="100%" x="0" y="0" fill="none" stroke="none"/>

 <g style="">
  <title>background</title>
  <rect fill="none" id="canvas_background" height="402" width="582" y="-1" x="-1"/>
 </g>
 <g style="" class="currentLayer">
  <title>Layer 1</title>
  <g id="svg_1" class="" fill-opacity="1" fill="#2c3e50">
   <g id="svg_2" fill="#2c3e50">
    <path id="svg_3" fill="#2c3e50" d="m328.843994,368.733002c-5.382996,-3.235016 -10.90799,-6.487 -16.433014,-9.674988c1.299011,-11.070007 1.302002,-22.268005 0.006012,-33.31601c5.54599,-3.200012 11.067993,-6.450012 16.424988,-9.67099c9.02002,-5.420013 12.779999,-16.856018 8.744019,-26.603027c0,0 0,0 -0.001007,-0.000977l-11.770996,-28.417999c-4.037018,-9.744019 -14.777008,-15.175018 -24.993011,-12.630005c-6.070984,1.510986 -12.273987,3.117996 -18.454987,4.776001c-6.901001,-8.73201 -14.820007,-16.649002 -23.563019,-23.554001c1.65802,-6.182007 3.266022,-12.388 4.778015,-18.461014c2.544983,-10.210999 -2.88501,-20.954987 -12.628998,-24.991989l-28.417999,-11.770996c-9.744003,-4.03801 -21.183014,-0.281006 -26.604996,8.740997c-3.229004,5.373993 -6.481995,10.899002 -9.673996,16.432999c-11.067017,-1.298996 -22.263016,-1.302002 -33.31601,-0.007004c-3.202011,-5.550995 -6.453003,-11.074005 -9.669998,-16.425995c-5.424011,-9.020004 -16.860008,-12.778 -26.605011,-8.740997l-28.417999,11.770996c-9.741997,4.035995 -15.173996,14.780991 -12.628998,24.991989c1.514999,6.085007 3.121002,12.289001 4.776001,18.455002c-8.731003,6.899002 -16.648998,14.820007 -23.55299,23.563004c-6.195999,-1.662994 -12.402012,-3.268997 -18.463001,-4.778992c-10.213999,-2.547012 -20.955999,2.888 -24.992999,12.630981l-11.769,28.417023c-4.035,9.744995 -0.276,21.182007 8.742,26.60199c5.375,3.230011 10.9,6.481995 16.433001,9.675018c-1.298,11.065979 -1.301001,22.261993 -0.006001,33.315979c-5.538,3.195007 -11.06,6.446014 -16.429001,9.672028c-9.018,5.42099 -12.776999,16.856995 -8.741,26.602997l11.772,28.417999c4.036001,9.742981 14.775,15.175995 24.993002,12.629974c6.063999,-1.509979 12.267998,-3.115997 18.452999,-4.77597c6.901001,8.730988 14.82,16.646973 23.562996,23.552979c-1.659996,6.188995 -3.266998,12.39502 -4.778,18.460999c-2.544998,10.210999 2.885002,20.955994 12.629005,24.992004l28.418999,11.772003c2.639999,1.092987 5.403,1.61499 8.137001,1.61499c7.362,0 14.513992,-3.778992 18.470993,-10.35498c3.205002,-5.333008 6.456009,-10.856018 9.674011,-16.432007c11.064987,1.296997 22.263992,1.299011 33.315994,0.006012c3.179001,5.511993 6.429993,11.033997 9.669998,16.426971c5.421997,9.02002 16.858002,12.777039 26.604996,8.741028l28.417999,-11.771027c9.742004,-4.03598 15.174011,-14.780975 12.628998,-24.991974c-1.502991,-6.03302 -3.108978,-12.237 -4.776001,-18.455017c8.729004,-6.898987 16.64801,-14.819 23.554016,-23.561981c6.177979,1.656982 12.384003,3.26297 18.459991,4.776978c10.210999,2.546997 20.955994,-2.884003 24.993011,-12.630005l11.770996,-28.418976c4.033997,-9.745026 0.274994,-21.182007 -8.743011,-26.60202zm-23.727997,45.101013c-5.837006,-1.462006 -11.786987,-3.007996 -17.703003,-4.60199c-8.376007,-2.253021 -17.214996,0.691986 -22.518982,7.506989c-6.096008,7.829987 -13.151016,14.885986 -20.968018,20.972992c-6.806992,5.302002 -9.748001,14.138 -7.492996,22.509003c1.602997,5.95401 3.147995,11.899994 4.600998,17.696014l-26.121994,10.819c-3.10701,-5.184021 -6.218002,-10.481018 -9.259003,-15.765015c-4.326996,-7.514008 -12.654999,-11.678009 -21.216003,-10.618011c-9.830994,1.221008 -19.809998,1.220001 -29.653992,-0.004974c-8.585007,-1.06601 -16.906006,3.097992 -21.23201,10.613983c-3.077988,5.343994 -6.189995,10.644012 -9.262993,15.77301l-26.122002,-10.820007c1.460999,-5.826996 3.006996,-11.776001 4.602997,-17.700989c2.255005,-8.375 -0.691994,-17.214996 -7.506996,-22.52002c-7.830002,-6.095001 -14.885002,-13.148987 -20.973,-20.964996c-5.300003,-6.80899 -14.136002,-9.748993 -22.510002,-7.494995c-5.923,1.595001 -11.869999,3.140991 -17.695,4.601013l-10.82,-26.121002c5.16,-3.094025 10.459,-6.205017 15.764999,-9.26001c7.514999,-4.326996 11.683002,-12.653015 10.618999,-21.214996c-1.223,-9.832001 -1.219997,-19.809998 0.003002,-29.654999c1.068001,-8.570007 -3.097,-16.904999 -10.616001,-21.233002c-5.304001,-3.054016 -10.604,-6.166016 -15.771999,-9.265015l10.82,-26.121002c5.82,1.459015 11.768002,3.005005 17.702,4.60202c8.372002,2.255981 17.212002,-0.692017 22.52,-7.507019c6.095001,-7.829987 13.150002,-14.885986 20.964996,-20.971985c6.808006,-5.30101 9.749001,-14.138 7.494003,-22.512009c-1.589996,-5.903992 -3.136002,-11.849991 -4.600998,-17.694l26.122002,-10.819c3.084,5.146011 6.195999,10.444 9.259003,15.764999c4.327988,7.515015 12.662994,11.689011 21.215988,10.618011c9.827011,-1.223007 19.804001,-1.223007 29.657013,0.00499c8.574997,1.068008 16.904999,-3.10199 21.230988,-10.616989c3.053009,-5.304001 6.166,-10.604004 9.262009,-15.771011l26.121994,10.819c-1.46199,5.833008 -3.007996,11.782013 -4.602997,17.703003c-2.255005,8.374008 0.692001,17.214005 7.507004,22.518997c7.828995,6.095001 14.88501,13.149017 20.972992,20.964996c5.300018,6.807007 14.132996,9.748016 22.511017,7.494019c5.918976,-1.593994 11.86499,-3.140015 17.694,-4.601013l10.819,26.121002c-5.153015,3.088989 -10.451019,6.200012 -15.765015,9.26001c-7.514984,4.326996 -11.68399,12.653992 -10.618988,21.216003c1.222992,9.826996 1.220978,19.806 -0.005005,29.656982c-1.06601,8.571014 3.100983,16.903992 10.617004,21.231018c5.29599,3.048981 10.595978,6.16098 15.772003,9.263l-10.817017,26.123993z"/>
   </g>
  </g>
  <g id="svg_4" class="" fill-opacity="1" fill="#2c3e50">
   <g id="svg_5" fill="#2c3e50">
    <path id="svg_6" fill="#2c3e50" d="m241.761993,312.510986c0,0 0,0 -0.001007,-0.001007c-16.479996,-39.789001 -62.255997,-58.751984 -102.050995,-42.270996c-39.787994,16.482025 -58.751991,62.262024 -42.269989,102.051025c7.982994,19.276001 22.996994,34.286987 42.270996,42.272003c9.637009,3.990997 19.763,5.987 29.889008,5.987s20.251999,-1.996002 29.890991,-5.987c39.78801,-16.482025 58.751007,-62.261017 42.270996,-102.051025zm-51.041992,80.877014c-13.617996,5.640991 -28.617004,5.640015 -42.238998,0c-13.617996,-5.640991 -24.225006,-16.248993 -29.867004,-29.868011c-11.646996,-28.113983 1.752998,-60.461975 29.867996,-72.106995c6.88501,-2.85199 14.021011,-4.201996 21.047012,-4.201996c21.666992,0 42.264999,12.839996 51.059998,34.070007c11.644989,28.113983 -1.755005,60.460999 -29.869003,72.106995z"/>
   </g>
  </g>
  <g id="svg_7" class="" fill-opacity="1" fill="#2c3e50">
   <g id="svg_8" fill="#2c3e50">
    <path id="svg_9" fill="#2c3e50" d="m496.553009,100.935997c-3.955994,-0.591995 -8.019012,-1.167 -12.110992,-1.712997c-2.062012,-6.857002 -4.81601,-13.504997 -8.21402,-19.819c2.504028,-3.275002 4.972015,-6.556 7.357025,-9.778999c5.294983,-7.160999 4.528992,-17.317001 -1.779999,-23.623001l-15.808014,-15.806c-6.30899,-6.309999 -16.464996,-7.074999 -23.623993,-1.778c-3.234009,2.393002 -6.514008,4.860001 -9.778992,7.355c-6.313019,-3.397999 -12.960022,-6.151999 -19.819,-8.214998c-0.547028,-4.092001 -1.120026,-8.155001 -1.712006,-12.110001c-1.317017,-8.806 -9.039032,-15.448 -17.961029,-15.448l-22.355988,0c-8.921997,0 -16.644012,6.642 -17.960999,15.447c-0.591003,3.953 -1.165009,8.017001 -1.712006,12.11c-6.859009,2.063002 -13.507019,4.817001 -19.819,8.215c-3.263,-2.495998 -6.545013,-4.963999 -9.778015,-7.355c-7.16098,-5.296999 -17.316986,-4.532 -23.623993,1.777l-15.806,15.805c-6.309998,6.307999 -7.076996,16.465 -1.779999,23.626999c2.382996,3.222 4.851013,6.503998 7.354004,9.778c-3.395996,6.313004 -6.151001,12.959999 -8.21402,19.819c-4.090973,0.546997 -8.154999,1.121002 -12.109985,1.712997c-8.807007,1.318001 -15.449005,9.039001 -15.449005,17.962006l0,22.355003c0,8.921997 6.640015,16.643997 15.446991,17.96199c3.956024,0.59201 8.019012,1.167007 12.111023,1.712997c2.062988,6.858002 4.816986,13.505005 8.213989,19.819c-2.501007,3.272003 -4.968994,6.552002 -7.356995,9.779007c-5.294006,7.158997 -4.528992,17.317001 1.779999,23.621994l15.807983,15.807999c6.308014,6.310013 16.46402,7.074005 23.624023,1.778c3.233978,-2.390991 6.513977,-4.860001 9.777985,-7.353989c6.315002,3.397995 12.963013,6.151993 19.820007,8.213989c0.545013,4.091003 1.119995,8.154999 1.712006,12.111008c1.317993,8.806 9.040009,15.448013 17.962006,15.448013l22.355988,0c8.921997,0 16.644012,-6.640015 17.960999,-15.44902c0.591003,-3.955994 1.165009,-8.018997 1.712006,-12.110992c6.858002,-2.061005 13.505005,-4.817001 19.819,-8.214996c3.263,2.495987 6.544983,4.963989 9.777985,7.355988c7.158997,5.297012 17.317017,4.532013 23.624023,-1.776993l15.807983,-15.806c6.30899,-6.307999 7.075012,-16.464996 1.778015,-23.626007c-2.386017,-3.225998 -4.854004,-6.507996 -7.354004,-9.776993c3.395996,-6.313004 6.151001,-12.959 8.213989,-19.819c4.091003,-0.546997 8.154999,-1.121002 12.110016,-1.712997c8.806976,-1.318008 15.448975,-9.039001 15.448975,-17.962006l0,-22.354996c-0.000977,-8.923004 -6.641968,-16.645004 -15.447968,-17.963005zm-6.325012,37.206001c-3.59201,0.520996 -7.256989,1.027008 -10.93399,1.505997c-7.27301,0.949005 -13.22702,6.111008 -15.165009,13.149002c-1.856995,6.738998 -4.552002,13.242004 -8.009003,19.328003c-3.610992,6.352997 -3.053986,14.214996 1.419006,20.031998c2.255005,2.932007 4.492004,5.882996 6.669006,8.798996l-11.404022,11.404999c-2.924988,-2.182999 -5.875977,-4.418991 -8.801971,-6.668991c-5.814026,-4.475006 -13.678009,-5.028 -20.032013,-1.421005c-6.087006,3.458008 -12.589996,6.153 -19.325012,8.01001c-7.041992,1.939987 -12.203979,7.893997 -13.149994,15.164993c-0.479004,3.677002 -0.984009,7.343002 -1.505981,10.934998l-16.130005,0c-0.520996,-3.591995 -1.026001,-7.257004 -1.506012,-10.931c-0.949005,-7.274002 -6.109985,-13.227997 -13.149994,-15.167999c-6.737,-1.856003 -13.238007,-4.550995 -19.326996,-8.009003c-6.354004,-3.610001 -14.218018,-3.054993 -20.031006,1.419006c-2.927002,2.250992 -5.876007,4.485992 -8.803009,6.668991l-11.403992,-11.404999c2.177002,-2.918991 4.412994,-5.867996 6.67099,-8.802994c4.470001,-5.815002 5.027008,-13.677002 1.417023,-20.029999c-3.457001,-6.085999 -6.152008,-12.589996 -8.009003,-19.326996c-1.938995,-7.040009 -7.891998,-12.201004 -15.165009,-13.150009c-3.677002,-0.479996 -7.342987,-0.983994 -10.934998,-1.506989l0,-16.128006c3.59201,-0.521004 7.256989,-1.027 10.93399,-1.506004c7.27301,-0.948997 13.22702,-6.111 15.165009,-13.148994c1.856995,-6.738007 4.550995,-13.241005 8.009003,-19.328003c3.610992,-6.352997 3.053986,-14.216003 -1.416992,-20.030998c-2.259003,-2.936005 -4.495026,-5.886002 -6.670013,-8.800003l11.403992,-11.404999c2.925018,2.182999 5.875,4.418999 8.800018,6.667999c5.811981,4.475002 13.674988,5.033001 20.033997,1.422001c6.084991,-3.457001 12.588989,-6.152 19.324982,-8.009998c7.042023,-1.940002 12.20401,-7.894001 13.150024,-15.165001c0.47998,-3.677 0.985992,-7.342001 1.506989,-10.934l16.130005,0c0.520996,3.591 1.026001,7.255999 1.505005,10.930998c0.948975,7.274002 6.110992,13.228001 13.149994,15.167c6.738007,1.857002 13.242004,4.553001 19.328003,8.010002c6.35498,3.611 14.217987,3.049999 20.029999,-1.420002c2.927002,-2.25 5.876007,-4.486 8.802979,-6.668999l11.404022,11.404999c-2.175018,2.915001 -4.411011,5.866005 -6.670013,8.803001c-4.471008,5.814003 -5.027008,13.676003 -1.419006,20.028999c3.457001,6.087997 6.152008,12.592003 8.009003,19.328003c1.938995,7.040001 7.891998,12.200996 15.165009,13.150002c3.677002,0.479996 7.342987,0.984993 10.934998,1.506996l0,16.127998z"/>
   </g>
  </g>
  <g id="svg_10" class="" fill-opacity="1" fill="#2c3e50">
   <g id="svg_11" fill="#2c3e50">
    <path id="svg_12" fill="#2c3e50" d="m381.924011,83.675003c-25.584991,0 -46.401001,20.814995 -46.401001,46.401001c0,25.58699 20.815002,46.401993 46.401001,46.401993s46.401001,-20.815002 46.401001,-46.401993c0,-25.586006 -20.815002,-46.401001 -46.401001,-46.401001zm0,72.175995c-14.210999,0 -25.774994,-11.563004 -25.774994,-25.776001c0,-14.212997 11.562988,-25.774994 25.774994,-25.774994c14.212006,0 25.773987,11.562996 25.774994,25.774994c0,14.212997 -11.563019,25.776001 -25.774994,25.776001z"/>
   </g>
  </g>
  <g id="svg_13"/>
  <g id="svg_14"/>
  <g id="svg_15"/>
  <g id="svg_16"/>
  <g id="svg_17"/>
  <g id="svg_18"/>
  <g id="svg_19"/>
  <g id="svg_20"/>
  <g id="svg_21"/>
  <g id="svg_22"/>
  <g id="svg_23"/>
  <g id="svg_24"/>
  <g id="svg_25"/>
  <g id="svg_26"/>
  <g id="svg_27"/>
 </g>
</svg>